User Type,Username,Date,Text
[V],Zen_Bud,2012-03-26T16:35Z,"
	 ID_A.2011.x264.AC3(5.1).Multisub.mkv-Zen_Bud

Format                                   : Matroska
Format version                           : Version 2
File size                                : 1.72 GiB
Duration                                 : 1h 40mn
Overall bit rate                         : 2 465 Kbps
Writing application                      : HandBrake 0.9.6
Writing library                          : libmkv 0.6.5

Video
ID                                       : 1
Format                                   : AVC
Format/Info                              : Advanced Video Codec
Format profile                           : High@L3.0
Format settings, CABAC                   : Yes
Format settings, ReFrames                : 4 frames
Codec ID                                 : V_MPEG4/ISO/AVC
Duration                                 : 1h 40mn
Bit rate                                 : 2 000 Kbps
Width                                    : 720 pixels
Height                                   : 432 pixels
Display aspect ratio                     : 2.35:1
Original display aspect ratio            : 2.35:1
Frame rate mode                          : Variable
Frame rate                               : 25.000 fps
Color space                              : YUV
Chroma subsampling                       : 4:2:0
Bit depth                                : 8 bits
Scan type                                : Progressive
Bits/(Pixel*Frame)                       : 0.257
Stream size                              : 1.38 GiB (80%)
Writing library                          : x264 core 120
Encoding settings                        : cabac=1 / ref=4 / deblock=1:0:0 / analyse=0x3:0x113 

Audio
ID                                       : 2
Format                                   : AC-3
Format/Info                              : Audio Coding 3
Mode extension                           : CM (complete main)
Codec ID                                 : A_AC3
Duration                                 : 1h 40mn
Bit rate mode                            : Constant
Bit rate                                 : 448 Kbps
Channel(s)                               : 6 channels
Channel positions                        : Front: L C R, Side: L R, LFE
Sampling rate                            : 48.0 KHz
Bit depth                                : 16 bits
Compression mode                         : Lossy
Stream size                              : 321 MiB (18%)
Language                                 : Danish
Default                                  : Yes
Forced                                   : No

Text #1
ID                                       : 3
Format                                   : VobSub
Codec ID                                 : S_VOBSUB
Codec ID/Info                            : The same subtitle format used on DVDs
Language                                 : Danish


Text #2
ID                                       : 4
Format                                   : VobSub
Codec ID                                 : S_VOBSUB
Codec ID/Info                            : The same subtitle format used on DVDs
Language                                 : Danish


Text #3
ID                                       : 5
Format                                   : VobSub
Codec ID                                 : S_VOBSUB
Codec ID/Info                            : The same subtitle format used on DVDs
Language                                 : Swedish


Text #4
ID                                       : 6
Format                                   : VobSub
Codec ID                                 : S_VOBSUB
Codec ID/Info                            : The same subtitle format used on DVDs
Language                                 : Norwegian


Text #5
ID                                       : 7
Format                                   : VobSub
Codec ID                                 : S_VOBSUB
Codec ID/Info                            : The same subtitle format used on DVDs
Language                                 : Finnish


Text #6
ID                                       : 8
Format "
,PauloFran,2012-04-29T14:43Z,Thank you!
